<svg xmlns="http://www.w3.org/2000/svg" viewBox="0 0 1000 644.745763"><title>فاطمة — diwani</title><path fill="#b38b45" fill-rule="nonzero" d="M172.20338983050848 244.06779661016947 212.8813559322034 163.38983050847457Q180.33898305084745 169.4915254237288 147.79661016949152 175.59322033898303Q115.2542372881356 181.69491525423726 82.71186440677967 187.79661016949152L42.03389830508476 268.47457627118644Q74.57627118644069 262.3728813559322 107.11864406779662 256.2711864406779Q139.66101694915255 250.1694915254237 172.20338983050848 244.06779661016947ZM52.88135593220339 553.2203389830509Q62.3728813559322 553.2203389830509 70.50847457627118 550.5084745762712Q103.05084745762711 541.0169491525423 124.7457627118644 516.6101694915253L133.5593220338983 644.7457627118644L183.72881355932202 551.1864406779661L171.52542372881356 372.88135593220335Q171.52542372881356 328.8135593220339 146.4406779661017 318.64406779661016Q143.72881355932202 317.2881355932203 140.33898305084745 316.6101694915254Q136.94915254237287 315.9322033898305 133.5593220338983 315.9322033898305Q113.89830508474576 315.9322033898305 88.13559322033898 339.6610169491525Q79.32203389830508 347.7966101694915 60.33898305084745 374.9152542372881Q43.389830508474574 398.6440677966101 26.779661016949152 429.8305084745762Q10.169491525423728 461.01694915254234 2.711864406779661 492.2033898305084Q2.0338983050847457 496.9491525423729 1.0169491525423728 501.3559322033898Q0.0 505.7627118644067 0.0 509.8305084745762Q0.0 523.3898305084746 8.813559322033898 533.2203389830509Q17.627118644067796 543.050847457627 29.83050847457627 548.1355932203389Q42.03389830508475 553.2203389830509 52.88135593220339 553.2203389830509ZM115.9322033898305 449.4915254237288Q115.9322033898305 452.88135593220335 115.59322033898304 456.2711864406779Q115.25423728813558 459.6610169491525 114.57627118644068 463.05084745762707Q109.15254237288136 464.4067796610169 104.0677966101695 465.42372881355925Q98.98305084745762 466.44067796610165 93.5593220338983 466.44067796610165Q77.28813559322033 466.44067796610165 64.7457627118644 460.0Q52.20338983050847 453.5593220338983 46.77966101694915 443.3898305084746Q43.389830508474574 437.9661016949152 43.389830508474574 433.89830508474574Q43.389830508474574 429.1525423728813 47.45762711864407 424.4067796610169Q51.52542372881356 418.98305084745755 56.610169491525426 414.2372881355932Q61.69491525423729 409.4915254237288 67.79661016949152 404.74576271186436Q75.25423728813558 397.9661016949152 85.42372881355932 397.9661016949152Q105.08474576271186 397.9661016949152 110.50847457627118 413.5593220338983Q115.9322033898305 429.1525423728813 115.9322033898305 449.4915254237288ZM263.728813559322 532.8813559322034Q208.135593220339 549.8305084745762 145.76271186440678 557.2881355932203L130.84745762711864 644.7457627118644Q176.27118644067798 633.8983050847457 215.9322033898305 623.728813559322Q255.59322033898303 613.5593220338983 292.8813559322034 594.5762711864406Q334.91525423728814 573.5593220338983 354.57627118644064 549.8305084745762Q367.45762711864404 534.2372881355932 374.2372881355932 524.0677966101695Q381.01694915254234 513.8983050847457 385.4237288135593 500.33898305084745Q389.8305084745763 486.77966101694915 394.57627118644064 461.69491525423723Q400.0 435.9322033898305 368.13559322033893 435.2542372881355Q335.59322033898303 433.89830508474574 324.06779661016947 437.9661016949152Q306.4406779661017 437.9661016949152 289.49152542372883 475.2542372881355Q280.6779661016949 494.2372881355932 274.57627118644064 508.8135593220339Q268.47457627118644 523.3898305084746 263.728813559322 532.8813559322034ZM581.0169491525423 261.01694915254234Q587.7966101694915 274.57627118644064 580.3389830508474 278.6440677966101Q551.1864406779661 292.2033898305084 517.6271186440678 300.6779661016949Q484.06779661016947 309.1525423728813 448.13559322033893 315.9322033898305Q466.4406779661017 297.62711864406776 484.7457627118644 278.9830508474576Q503.0508474576271 260.33898305084745 526.7796610169491 247.45762711864404Q541.6949152542372 239.32203389830505 558.6440677966101 245.08474576271183Q575.593220338983 250.84745762711862 581.0169491525423 261.01694915254234ZM646.7796610169491 237.9661016949152Q661.0169491525423 209.49152542372877 640.0 184.4067796610169Q623.0508474576271 164.06779661016947 591.1864406779661 170.16949152542367Q558.6440677966102 176.27118644067792 543.728813559322 191.18644067796606Q513.2203389830509 219.6610169491525 480.33898305084745 253.89830508474572Q447.45762711864404 288.13559322033893 421.01694915254234 320.6779661016949Q356.6101694915254 345.0847457627118 334.91525423728814 381.69491525423723Q324.06779661016947 399.99999999999994 311.5254237288135 426.44067796610165Q298.9830508474576 452.88135593220335 283.3898305084746 486.7796610169491L297.6271186440678 488.13559322033893Q320.0 431.86440677966095 359.3220338983051 418.98305084745755Q397.96610169491527 406.1016949152542 440.6779661016949 393.89830508474574Q466.4406779661017 386.44067796610165 491.52542372881356 376.61016949152537Q516.6101694915254 366.7796610169491 539.6610169491526 353.89830508474574Q577.6271186440678 333.5593220338983 602.7118644067796 304.4067796610169Q627.7966101694915 275.2542372881355 646.7796610169491 237.9661016949152ZM421.01694915254234 79.32203389830505 435.2542372881356 296.9491525423729 485.4237288135593 217.62711864406776 470.50847457627117 0.0ZM729.4915254237288 258.30508474576266 755.9322033898305 644.7457627118644 797.9661016949152 564.7457627118644 772.2033898305085 178.9830508474576ZM985.0847457627118 200.6779661016949 936.9491525423729 155.9322033898305Q923.3898305084746 172.88135593220338 909.1525423728813 190.50847457627117Q894.9152542372881 208.13559322033896 881.3559322033898 225.76271186440675L929.4915254237287 270.50847457627117Q943.728813559322 252.88135593220338 957.6271186440678 235.59322033898303Q971.5254237288135 218.3050847457627 985.0847457627118 200.6779661016949ZM896.9491525423728 471.86440677966095Q909.8305084745762 471.86440677966095 920.3389830508473 466.44067796610165Q930.8474576271185 461.01694915254234 937.6271186440677 455.593220338983Q938.9830508474575 454.2372881355932 939.6610169491524 454.2372881355932Q945.0847457627118 454.2372881355932 951.864406779661 473.89830508474574L959.9999999999999 498.30508474576266Q927.457627118644 523.3898305084746 770.8474576271185 557.2881355932203L755.9322033898304 644.7457627118644Q855.593220338983 623.728813559322 890.1694915254236 606.1016949152541Q907.1186440677965 597.2881355932203 922.3728813559321 584.7457627118644Q937.6271186440677 572.2033898305084 951.186440677966 556.6101694915254Q966.1016949152541 539.6610169491526 976.9491525423728 517.6271186440678Q987.7966101694915 495.593220338983 994.5762711864406 468.4745762711864Q997.2881355932202 457.62711864406776 998.64406779661 447.45762711864404Q999.9999999999999 437.2881355932203 999.9999999999999 427.7966101694915Q999.9999999999999 395.9322033898305 986.4406779661016 371.5254237288135Q972.8813559322033 347.1186440677966 953.8983050847456 333.5593220338983Q945.7627118644067 327.45762711864404 938.9830508474575 327.45762711864404Q927.457627118644 327.45762711864404 917.2881355932202 341.69491525423723Q903.7288135593219 359.99999999999994 893.2203389830507 382.0338983050847Q882.7118644067796 404.06779661016947 871.186440677966 425.0847457627118Q866.4406779661016 433.89830508474574 866.4406779661016 446.77966101694915Q866.4406779661016 460.33898305084745 875.2542372881355 466.1016949152542Q884.0677966101694 471.86440677966095 896.9491525423728 471.86440677966095Z"/></svg>
