<svg xmlns="http://www.w3.org/2000/svg" viewBox="0 0 1000 686.821581"><title>أسماء — classic</title><path fill="#b38b45" fill-rule="nonzero" d="M166.66132837940276 598.8135600297654Q163.26770290448584 608.9944364545161 157.8379021446188 612.388061929433Q132.72507363023362 621.211488164217 101.16435671350632 638.1796155388016Q69.60363979677902 655.1477429133862 31.595034477709596 680.9392965227547Q24.807783527875777 685.011647092655 20.735432957975476 680.9392965227547Q19.377982768008707 679.5818463327879 19.377982768008707 678.9031212378045Q13.269456913158265 666.6860695281036 51.278062232227704 634.1072649689013Q-4.377395556409688 613.7455121193998 0.3736801084739909 580.487982465214Q3.0885804884075228 553.3389786658788 42.454635997443724 507.8643973019921Q66.21001432186213 481.39411859764016 82.49941660146331 481.39411859764016Q117.11439644561582 481.39411859764016 113.72077097069891 519.4027239167096Q113.04204587571553 531.6197756264105 104.89734473591494 545.1942775260782Q97.43136869109773 558.0900543307624 87.92921736133036 548.5879030009951Q57.386588087078145 519.4027239167096 43.81208618741049 538.4070265762443Q29.55885919275945 559.4475045207291 68.24618960681227 577.7730820852805Q92.00156793123068 589.3114086999981 122.5441972054829 583.2028828451475Q132.04634853525025 581.1667075601974 143.58467514996775 574.3794566103636Q149.6932010048182 570.9858311354467 155.12300176468528 568.6102933030048Q160.55280252455233 566.234755470563 164.62515309445263 565.5560303755797Q177.5209298991369 563.5198550906294 172.09112913926984 581.1667075601974ZM268.4700926269102 194.97212851465264Q271.18499300684374 190.22105284976897 273.2211682917939 190.89977794475237Q276.6147937667108 190.89977794475237 278.6509690516609 205.1530049394034Q290.86802076136183 310.35539466182775 294.9403713312621 385.0151551099998Q298.333996806179 455.60256498827164 300.7095346386209 498.36224597222474Q303.08507247106274 541.1219269561778 303.7637975660461 556.0538790458122Q308.51487323092977 618.4965877842835 371.63630706438437 622.5689383541837Q389.9618846289357 623.9263885441505 385.88953405903544 647.0030417735856Q379.78100820418496 683.6541969026882 371.63630706438437 683.6541969026882Q282.72331962156125 683.6541969026882 276.6147937667108 600.8497353147155Q273.89989338677725 566.234755470563 272.2030806493188 531.2804130789187Q270.50626791186033 496.3260706872746 269.1488177218936 461.03236574813866Q267.1126424369434 390.4449558698669 261.004116582093 346.66718724343866Q254.89559072724253 302.8894186170105 244.7147143024918 247.23396082837314Q242.67853901754165 237.0530844036224 246.75088958744195 230.26583345378856ZM459.87056941222414 502.43459654212506Q459.19184431724074 520.7601741066763 476.83869678680867 550.6240782859452Q483.6259477366425 561.4836798056793 491.4312863289514 569.6283809454799Q499.23662492126033 577.7730820852805 508.0600511560443 583.2028828451475Q511.45367663096124 585.2390581300978 519.5983777707618 587.6145959625396Q527.7430789105624 589.9901337949814 540.6388557152467 593.3837592698983Q550.8197321399974 596.0986596498319 558.2857081848147 599.1529225772572Q565.7516842296318 602.2071855046823 571.8602100844823 605.6008109795993Q583.3985366991998 611.0306117394663 583.3985366991998 623.9263885441505Q582.7198116042164 659.2200934832864 577.2900108443494 679.5818463327879Q575.2538355593992 690.4414478525221 566.4304093246152 685.011647092655Q503.3089754911606 650.3966672485025 483.6259477366425 650.3966672485025Q463.9429199821244 650.3966672485025 427.97048994800514 666.6860695281036Q410.3236374784372 674.8307706679043 396.40977303127784 679.2424837852963Q382.49590858411847 683.6541969026882 371.63630706438437 683.6541969026882Q363.4916059245838 683.6541969026882 358.7405302597001 668.7222448130539Q353.98945459481644 653.111567628436 356.70435497474995 638.1796155388016Q359.41925535468346 623.2476634491671 371.63630706438437 622.5689383541837Q426.6130397580384 617.8178626893001 453.0833184623903 599.4922851247487Q425.2555895680716 549.2666280959784 442.22371694265615 494.9686204973078Q461.2280196021909 452.2089395133547 459.87056941222414 502.43459654212506ZM456.4769439373072 500.39842125717485Q448.33224279750664 509.2218474919589 446.2960675125565 508.5431223969755Q437.4726412777725 505.1494969220586 441.5449918476728 494.9686204973078Q470.73017093195824 418.27268476418556 530.4579792904959 414.87905928926864Q547.4261066650805 414.2003341942853 563.0367838496983 442.7067881835874Q576.611285749366 469.1770668879393 602.4028393587345 470.53451707790606Q646.5199705326544 472.5706923628562 694.7094522764745 395.19603153475055Q700.8179781313249 386.3726052999666 706.2477788911921 391.80240605983363Q712.3563047460425 397.9109319146841 706.2477788911921 410.127983624385Q700.1392530363416 422.3450353340859 700.1392530363416 424.38121061903604Q700.1392530363416 435.24081213877014 710.9988545560757 439.31316270867046Q747.6500096851785 454.2451147983048 768.0117625346799 448.1365889434544Q774.1202883895303 446.1004136585043 756.4734359199624 425.0599357140194Q754.4372606350123 423.0237604290693 755.794710824979 420.9875851441191L780.2288142443808 380.94280454009953Q782.2649895293309 378.90662925514937 784.301164814281 381.62152963508294Q805.3416427587659 406.73435814946805 789.0522404791648 464.4259912230556Q784.9798899092644 479.35794331269005 780.2288142443808 489.87818228493245Q775.4777385794971 500.39842125717485 770.0479378196301 505.828222017042Q759.8670613948793 516.687823536776 739.5053085453778 513.9729231568425Q694.0307271814911 507.1856722070087 669.5966237620894 489.5388197374408Q668.2391735721226 487.5026444524906 665.5242731921891 490.21754483242415Q630.9092933480366 539.0857516712277 581.3623614142497 534.334676006344Q554.2133576149143 531.6197756264105 533.8516047654128 493.61117030734107Q526.3856287205956 480.71539350265675 514.1685770108948 478.00049312272324Q482.94722264165915 471.8919672678728 461.2280196021909 492.2537201173743Q456.4769439373072 497.004795782258 456.4769439373072 500.39842125717485ZM913.9376579561073 228.9083832638218Q928.1908849507583 195.65085360963604 932.2632355206586 227.55093307385505L947.8739127052763 393.8385813447838Q973.665466314645 618.4965877842835 941.7653868504259 678.9031212378045Q937.0143111855423 687.0478223776051 934.2994108056088 682.9754718077048Q931.5845104256751 679.5818463327879 931.5845104256751 671.4371451929874Q932.941960615642 614.4242372143832 923.4398092858746 543.1581022411281Q923.4398092858746 540.4432018611944 909.1865822912235 414.2003341942853L894.2546302015892 291.351092002293Q892.8971800116224 277.77659010262533 896.9695305815227 268.274438772858ZM975.7016415995951 132.52941977618144Q957.3760640350437 135.92304525109836 944.1409246828678 138.6379456310319Q930.9057853306917 141.35284601096544 923.4398092858746 144.06774639089895Q915.9738332410574 146.78264677083246 901.7206062464063 152.5518100781912Q887.4673792517553 158.32097338554996 866.4269013072704 167.82312471531736Q857.6034750724864 171.89547528521763 853.5311245025862 165.1082243353838Q845.3864233627855 152.89117262568294 880.0014032069381 131.85069468119804Q854.8885746925529 119.63364297149718 851.494949217636 103.344240691896Q846.0651484577689 74.83778670259392 874.571602447071 36.15045628854108Q903.0780564363731 -2.5368741255117584 934.9781359005921 0.17802625442180897Q955.3398887500936 2.2142015393719703 953.3037134651435 23.25467948385682Q951.2675381801932 44.29515742834167 941.0866617554425 58.54838442299274Q931.5845104256751 72.12288632266035 924.7972594758413 61.94200989790966Q917.3312834310241 49.724958188208745 904.4355066263398 49.04623309322534Q890.8610047266721 47.688782903258584 883.395028681855 57.19093423302593Q875.2503275420544 67.37181065777668 884.0737537768384 74.83778670259392Q906.47168191129 95.87826464707877 950.5888130852098 97.23571483704552Q953.9824385601268 97.23571483704552 959.0728767725021 96.21762719457044Q964.1633149848775 95.19953955209536 970.9505659347113 93.8420893621286Q978.4165419795286 92.48463917216185 983.1676176444123 91.46655152968677Q987.9186933092959 90.44846388721169 990.6335936892294 90.44846388721169Q996.74211954408 90.44846388721169 998.7782948290301 95.19953955209536Q1000.8144701139802 99.27189012199568 999.4570199240135 102.6655155969126Q985.8825180243458 130.49324449123128 975.7016415995951 132.52941977618144Z"/></svg>
