<svg xmlns="http://www.w3.org/2000/svg" viewBox="0 0 1000 404.168378"><title>فاطمة — classic</title><path fill="#b38b45" fill-rule="nonzero" d="M126.74034092989015 155.32453824784326Q133.7728842375853 145.58717059103463 135.39577884705338 159.65225720642488Q135.9367437168761 165.0619059046519 138.1006031961669 180.74988712951026Q140.2644626754577 196.43786835436862 143.51025189439392 223.4861118455037Q146.75604111333013 249.9933904668161 148.6494181577096 265.9518541265858Q150.54279520208902 281.9103177863555 151.08376007191174 286.7790016147598Q155.41147903049335 330.5971560703987 169.4765656458836 339.2525939875619Q177.59103869322414 345.20320755561164 193.27901991808247 344.1212778159662Q203.01638757489113 344.1212778159662 204.63928218435922 355.481540082243Q206.26217679382734 367.3827672183424 202.4754227050684 379.82495922426455Q198.6886686163095 391.72618636036395 193.27901991808247 392.8081161000094Q162.98498720801118 394.9719755793002 148.37893572279822 377.66109974497374Q133.23191936776257 359.26829417100186 127.82227066953556 313.28628023607223Q112.67525431449991 341.9574183366754 96.44630821981885 348.4489967745478Q84.54508108371941 352.77671573312944 63.44745116063403 348.9899616443705Q40.726926628080555 344.6622426857889 31.53052384109462 337.0887345082711Q21.25219131446329 328.4332965911079 22.875085923931394 318.15496406447653Q24.4979805333995 306.25373692837707 33.15341845056273 288.9428610940506Q42.34982123754866 270.5500555200788 47.218505065952975 265.6813716916744Q75.88964316655618 238.09216333071666 115.38007866361342 216.99453340763128Q113.75718405414531 194.8149737449005 113.75718405414531 183.99567634844647Q113.75718405414531 173.17637895199243 118.62586788254961 166.68480051412ZM119.16683275237233 249.9933904668161Q76.97157290620159 261.89461760291556 58.57876733222972 286.2380367449371Q56.41490785293891 289.4838259638733 60.20166194169782 291.64768544316416Q71.02095933815185 297.05733414139115 85.6270108233648 297.86878144612524Q100.23306230857776 298.68022875085927 118.62586788254961 294.89347466210035Q121.33069223166314 294.35250979227766 124.57648145059935 291.1067205733414Q124.03551658077663 282.4512826561782 122.68310440621988 272.17295012954685Q121.33069223166314 261.89461760291556 119.16683275237233 249.9933904668161ZM83.46315134407399 58.49182654957964Q84.5450810837194 56.86893194011154 87.79087030265562 57.40989680993424Q98.61016769910965 61.19665089869315 108.07705292100692 66.60629959692017Q117.54393814290421 72.01594829514718 126.19937606006745 79.589456472665Q128.36323553935824 81.75331595195581 126.74034092989015 84.45814030106934L100.77402717840046 125.57147040759467Q99.69209743875506 127.19436501706278 95.90534334999614 124.48954066794927Q94.28244874052804 122.86664605848117 86.7089405630102 118.2684446649882Q79.13543238549238 113.67024327149522 65.07034577010214 105.5557702241547L44.51368071683947 137.4726975436941Q42.890786107371355 140.17752189280762 39.10403201861244 136.9317326738714Q36.94017253932164 135.3088380644033 27.743769752335705 129.35822449635356Q18.547366965349774 123.40761092830385 1.236491131023314 113.12927840167252Q-0.9273683482674926 111.50638379220442 0.6955262612006123 109.88348918273631L27.202804882513007 70.39305368567908Q28.28473462215841 68.77015907621097 31.53052384109462 69.31112394603367Q40.72692662808055 72.01594829514718 48.84139967542108 76.61414968864015Q56.95587272276161 81.21235108213313 63.98841603045673 87.16296465018283ZM313.914185888545 257.56689864433395Q317.1599751074812 255.94400403486583 318.78286971694934 258.6488283839793Q338.25760503056654 287.86093135440524 370.7154972199287 313.8272451058949Q403.71435427911354 340.3345237272073 444.2867195158161 344.1212778159662Q454.5650520424475 344.6622426857889 454.5650520424475 357.64539956153374Q454.5650520424475 392.8081161000094 444.2867195158161 392.8081161000094Q407.5011083678724 392.8081161000094 368.01067287081514 365.7598726088743Q365.30584852170165 396.0539053189456 361.5190944329428 399.8406594077045Q357.19137547436117 404.1683783662861 351.2407619063114 404.1683783662861Q290.1117316163461 399.2996945378818 250.08033124946616 350.61285625383863Q248.45743663999806 348.4489967745478 246.29357716070726 351.1538211236614Q219.24533366957215 391.72618636036395 193.27901991808247 392.8081161000094Q187.32840635003274 392.8081161000094 185.16454687074193 384.15267818284616Q178.6729684328695 359.8092590408246 185.70551174056465 349.53092651419325Q189.49226582932354 344.1212778159662 193.27901991808247 344.1212778159662Q244.12971768141645 342.4983832064981 255.4899799476932 318.15496406447653Q279.2924342198921 270.00909065025604 313.914185888545 257.56689864433395ZM311.75032640925417 297.59829901121384Q310.6683966696088 295.9754044017458 307.96357232049525 296.51636927156846Q291.7346262258142 300.3031233603274 284.7020829181191 310.040491017136Q281.99725856900557 313.8272451058949 285.2430477879418 315.9911045851857Q294.9804154447504 324.10557763252626 306.61116014593847 330.32667363548734Q318.2419048471266 336.5477696384484 331.7660265926942 340.87548859703Q335.5527806814531 341.9574183366754 336.36422798618713 340.87548859702997Q337.17567529092116 339.7935588573846 335.01181581163036 337.6296993780938Q329.6021671134033 330.056191200576 323.65155354535364 320.048341108856Q317.7009399773039 310.040491017136 311.75032640925417 297.59829901121384ZM511.36636337383123 9.804988265536451Q514.0711877229447 6.55919904660027 515.6940823324128 7.100163916422957Q517.8579418117037 7.641128786245645 519.4808364211717 11.42788287500457Q526.5133797288669 26.574899230040216 532.1935108620053 37.39419662649425Q537.8736419951437 48.21349402294828 542.742325823548 53.62314272117533Q547.6110096519523 58.49182654957963 542.742325823548 64.44244011762936L531.9230284270939 77.96656186319689Q528.6772392081576 82.2942808217785 529.2182040779803 89.32682412947366Q533.0049581667392 143.42331111174383 534.6278527762074 173.17637895199243Q536.2507473856755 202.92944679224104 536.2507473856755 208.88006036029074Q536.2507473856755 235.92830385142585 534.357370341296 257.56689864433395Q532.4639932969166 279.205493437242 529.2182040779803 295.43443953192303Q607.6581102022722 232.68251463248964 646.6075808295067 221.8632172360356Q667.1642458827694 215.91260366798588 679.6064378886915 220.7812874963902Q699.0811732023087 227.8138308040853 714.7691544271671 257.56689864433395Q718.0149436461033 263.5175122123836 715.3101192969898 273.2548798691923Q705.5727516401812 307.3356666680225 687.720910936032 334.9248750289803Q674.7377540602872 354.39961034259755 634.7063536934072 364.1369779994062Q585.4785505395414 375.49724026568293 537.6031595602323 382.80026600828944Q489.72776858092317 390.1032917508959 443.7457546459935 392.8081161000094Q438.33610594776644 392.8081161000094 434.5493518590076 380.9068889639099Q430.22163290042596 367.9237320881651 432.38549237971677 356.56346982188836Q434.5493518590076 345.20320755561164 443.7457546459935 344.1212778159662Q455.1060169122702 343.5803129461435 464.03193726434483 342.49838320649815Q472.9578576164194 341.4164534668527 479.4494360542918 340.87548859703L509.7434687643631 311.6633856266041Q510.2844336341858 309.4995261473133 510.8253985040085 304.3603598839976Q511.36636337383123 299.22119362068196 511.9073282436539 291.1067205733414Q512.4482931134767 282.99224752600094 512.4482931134767 272.44343256445825Q512.4482931134767 261.89461760291556 512.4482931134767 249.45242559699338Q512.4482931134767 237.01023359107126 511.36636337383123 213.74874418869507Q510.2844336341858 190.48725478631889 508.120574154895 157.48839772713407Q503.2518903264907 79.589456472665 500.00610110755446 60.655686028870434Q496.7603118886183 41.72191558507586 497.30127675844096 39.01709123596237Q500.5470659773772 29.820688448976455 504.0633376312247 22.78814514128132Q507.5796092850723 15.755601833586184 511.36636337383123 9.804988265536451ZM627.6738103857122 270.5500555200788Q622.2641616874851 270.5500555200788 616.3135481194354 272.17295012954685Q562.7580260069878 288.9428610940506 512.4482931134767 338.7116291177392Q564.380920616456 334.3839101591576 606.035215592804 326.81040198163976Q647.689510569152 319.2368938041219 679.0654730188688 307.8766315378452Q682.8522271076276 306.7947017981998 680.6883676283369 304.08987744908626Q658.5088079656061 271.63198525972416 627.6738103857122 270.5500555200788ZM792.1271308118135 3.3134098276640316Q794.2909902911042 -0.47334426109489414 795.9138849005724 0.06762060872785014Q798.6187092496858 0.06762060872785014 800.241603859154 11.42788287500457Q809.9789715159626 95.27743769752334 813.2247607348988 154.78357337802058Q815.9295850840123 211.04391983958155 817.8229621283917 245.1247066384118Q819.7163391727712 279.205493437242 820.2573040425939 291.1067205733414Q824.0440581313528 340.87548859703 874.3537910248641 344.1212778159662Q888.9598425100771 345.20320755561164 885.7140532911409 363.59601312958347Q880.8453694627365 392.8081161000094 874.3537910248641 392.8081161000094Q803.4873930780901 392.8081161000094 798.6187092496858 326.81040198163976Q796.4548497703951 299.22119362068196 795.1024375958383 271.3615028248128Q793.7500254212815 243.50181202894368 792.6680956816361 215.37163879816316Q791.0452010721681 159.1112923366022 786.1765172437638 124.21905823303793Q781.3078334153594 89.32682412947366 773.1933603680188 44.9677048040121Q771.5704657585508 36.85323175667156 774.816254977487 31.443583058444517ZM936.5647510544749 171.5534843425243Q943.5972943621699 171.5534843425243 953.8756268888013 180.20892225968754Q1002.5624651728444 222.4041821058583 999.8576408237309 287.31996648458255Q998.2347462142628 321.40075328341277 983.0877298592272 341.4164534668527Q943.0563294923472 392.8081161000094 874.3537910248641 392.8081161000094Q867.321247717169 392.8081161000094 864.0754584982328 380.36592409408723Q862.4525638887646 374.4153105260375 862.723046323676 367.9237320881651Q862.9935287585873 361.43215365029266 864.0754584982328 356.0225049520657Q866.2393179775236 345.20320755561164 874.3537910248641 344.1212778159662Q941.9743997527019 339.2525939875619 976.0551865515321 305.1718071887317Q974.432291942064 288.4018962242279 971.1865027231278 284.0741772656463Q967.3997486343688 278.1235636975966 964.6949242852553 279.205493437242Q962.5310648059645 279.7464583070647 961.9900999361419 281.3693529165328Q952.7936971491558 305.1718071887317 933.8599267053613 309.4995261473133Q874.3537910248641 322.48268302305814 879.2224748532684 263.5175122123836Q881.3863343325593 235.38733898160314 900.8610696461765 202.92944679224104Q919.2538752201484 171.5534843425243 936.5647510544749 171.5534843425243ZM918.7129103503256 229.97769028337612Q906.8116832142263 230.51865515319884 904.1068588651127 251.0753202064615Q904.1068588651127 254.3211094253977 904.6478237349354 254.3211094253977Q915.4671211313895 257.56689864433395 926.8273833976662 255.94400403486583Q937.6466807941202 254.3211094253977 941.4334348828792 248.9114607271707Q928.991242876957 228.89576054373072 918.7129103503256 229.97769028337612ZM907.8936129538716 57.40989680993424Q908.975542693517 55.787002200466134 912.2213319124533 56.327967070288835Q933.8599267053613 63.90147524780666 950.6298376698651 79.04849160284232Q952.7936971491558 81.21235108213313 951.1708025396878 83.37621056142393L925.7454536580208 124.48954066794927Q924.1225590485527 127.19436501706278 920.3358049597938 123.94857579812657Q918.1719454805029 122.32568118865846 908.975542693517 116.37506762060875Q899.7791399065311 110.42445405255901 882.4682640722046 100.14612152592768Q879.7634397230911 98.52322691645958 881.3863343325593 96.90033230699147Z"/></svg>
