<svg xmlns="http://www.w3.org/2000/svg" viewBox="0 0 1000 227.192915"><title>Fatima — minimal</title><path fill="#b38b45" fill-rule="nonzero" d="M0.0 225.2915950182676V21.07547540913106H148.9796466898598V52.937673956199546H37.86039487306296V225.2915950182676ZM34.71667709112664 146.98776322288467V115.12556467581616H136.5103904144719V146.98776322288467ZM273.11390530205534 225.2915950182676V193.69090390503013L271.2402535515366 187.12178657325342V131.91804160972214Q271.2402535515366 115.93032455380887 261.5525573023817 107.00969569641612Q251.86486105322672 98.08906683902337 232.26312391025397 98.08906683902337Q219.18272444579083 98.08906683902337 206.57262728645088 102.2060855657383Q193.96253012711097 106.32310429245324 185.06956983133878 113.42791659841757L170.92283981262534 86.9779416740397Q183.40215163383647 77.463782643369 200.78943940015824 72.54197241744808Q218.17672716648002 67.62016219152716 236.84791524502964 67.62016219152716Q270.6164934983624 67.62016219152716 289.16192401169485 83.84050070293958Q307.7073545250273 100.06083921435199 307.7073545250273 133.93253424419294V225.2915950182676ZM224.33843678634878 227.19291533040692Q206.57012921060172 227.19291533040692 193.4419500928715 221.2449967335287Q180.3137709751413 215.29707813665047 173.22279294998725 204.70022457385676Q166.1318149248332 194.10337101106302 166.1318149248332 180.64573047216166Q166.1318149248332 167.46977170116438 172.48464315777025 157.05651090267816Q178.8374713907073 146.6432501041919 193.12379325544816 140.4652081276637Q207.41011512018906 134.2871661511355 230.93772075559522 134.2871661511355H276.13439521583695V158.4661371589099H233.56585465499046Q214.9348887597338 158.4661371589099 208.4701372423899 164.4882549327512Q202.00538572504598 170.51037270659248 202.00538572504598 179.25243657258937Q202.00538572504598 189.11367004022853 209.91876826520334 194.91949871523013Q217.8321508053607 200.7253273902317 231.72992701191552 200.7253273902317Q245.29824179729917 200.7253273902317 255.9403769375108 194.6654855089466Q266.5825120777224 188.6056436276615 271.2402535515366 176.66452485648713L277.4145167930777 198.4970437327704Q272.0978524769213 212.2288085696018 258.5748192689555 219.71086195000436Q245.05178606098974 227.19291533040692 224.33843678634878 227.19291533040692ZM412.8711302749718 227.19291533040692Q387.2711968060045 227.19291533040692 373.209970548002 213.96037039824392Q359.14874428999946 200.7278254660809 359.14874428999946 174.87387879083013V35.161872152905005H395.61584526349014V174.03639095709192Q395.61584526349014 185.1400218945281 401.3323914427938 191.25644993697895Q407.04893762209747 197.3728779794298 417.4559216097475 197.3728779794298Q429.4724885958095 197.3728779794298 437.66880194179555 190.96471262325161L448.088339551118 216.95444078832952Q441.51922221934126 222.09254011309014 432.14087629971095 224.64272772174854Q422.7625303800807 227.19291533040692 412.8711302749718 227.19291533040692ZM333.71226087247993 98.60714879741364V69.52148250366648H437.4348998271585V98.60714879741364ZM478.0920645300424 225.2915950182676V69.52148250366648H514.5591655035331V225.2915950182676ZM496.32561501678776 43.730367179204364Q486.11231096048175 43.730367179204364 479.50924825624827 37.40520750788791Q472.90618555201473 31.080047836571453 472.90618555201473 21.865183589602168Q472.90618555201473 12.650319342632912 479.50924825624827 6.325159671316456Q486.11231096048175 0.0 496.32561501678776 0.0Q506.5389190730938 0.0 513.1419817773273 5.995698250145296Q519.7450444815607 11.991396500290591 519.7450444815607 21.206260747259876Q519.7450444815607 30.788310522844114 513.268988380469 37.25933885102424Q506.7929322793773 43.730367179204364 496.32561501678776 43.730367179204364ZM562.4041481972431 225.2915950182676V69.52148250366648H597.1862179574341V111.00601625203879L590.9541195168026 98.67760086060295Q598.7279102109326 83.63804588491016 613.7712439216124 75.62910403821866Q628.8145776322922 67.62016219152716 648.2478053296924 67.62016219152716Q670.0149315369113 67.62016219152716 686.2063524487785 78.43330485316058Q702.3977733606457 89.246447514794 707.6867691151816 111.35309068900726L693.3991982125162 106.36588779402196Q700.8812515929187 88.81386931711461 718.4181867510912 78.21701575432088Q735.9551219092637 67.62016219152716 758.8891973713919 67.62016219152716Q777.7389504413374 67.62016219152716 792.1799474708406 74.93245708843251Q806.6209445003439 82.24475198533787 814.8084513384313 97.36353391090535Q822.9959581765186 112.48231583647281 822.9959581765186 136.04764557932276V225.2915950182676H786.5288572030279V140.82105745131759Q786.5288572030279 120.10015070670251 777.3781049659851 109.89059376417026Q768.2273527289425 99.68103682163802 751.4599830383813 99.68103682163802Q739.5289198130301 99.68103682163802 730.2888850802894 104.88452881546303Q721.0488503475489 110.08802080928804 715.9912270105875 120.29757775182028Q710.9336036736262 130.50713469435252 710.9336036736262 146.12766622165083V225.2915950182676H674.4665027001355V140.82105745131759Q674.4665027001355 120.10015070670251 665.3534745705366 109.89059376417026Q656.2404464409377 99.68103682163802 639.3976285354889 99.68103682163802Q627.4665653101379 99.68103682163802 618.2265305773972 104.88452881546303Q608.9864958446565 110.08802080928804 603.9288725076951 120.29757775182028Q598.8712491707338 130.50713469435252 598.8712491707338 146.12766622165083V225.2915950182676ZM965.4065507770282 225.2915950182676V193.69090390503013L963.5328990265094 187.12178657325342V131.91804160972214Q963.5328990265094 115.93032455380887 953.8452027773544 107.00969569641612Q944.1575065281995 98.08906683902337 924.5557693852268 98.08906683902337Q911.4753699207637 98.08906683902337 898.8652727614237 102.2060855657383Q886.2551756020838 106.32310429245324 877.3622153063116 113.42791659841757L863.2154852875982 86.9779416740397Q875.6947971088093 77.463782643369 893.0820848751312 72.54197241744808Q910.4693726414529 67.62016219152716 929.1405607200024 67.62016219152716Q962.9091389733352 67.62016219152716 981.4545694866677 83.84050070293958Q1000.0000000000001 100.06083921435199 1000.0000000000001 133.93253424419294V225.2915950182676ZM916.6310822613216 227.19291533040692Q898.8627746855745 227.19291533040692 885.7345955678443 221.2449967335287Q872.6064164501141 215.29707813665047 865.5154384249602 204.70022457385676Q858.4244603998061 194.10337101106302 858.4244603998061 180.64573047216166Q858.4244603998061 167.46977170116438 864.7772886327431 157.05651090267816Q871.1301168656801 146.6432501041919 885.416438730421 140.4652081276637Q899.7027605951619 134.2871661511355 923.230366230568 134.2871661511355H968.4270406908098V158.4661371589099H925.8585001299633Q907.2275342347066 158.4661371589099 900.7627827173627 164.4882549327512Q894.2980312000188 170.51037270659248 894.2980312000188 179.25243657258937Q894.2980312000188 189.11367004022853 902.2114137401761 194.91949871523013Q910.1247962803335 200.7253273902317 924.0225724868883 200.7253273902317Q937.590887272272 200.7253273902317 948.2330224124837 194.6654855089466Q958.8751575526953 188.6056436276615 963.5328990265094 176.66452485648713L969.7071622680505 198.4970437327704Q964.3904979518941 212.2288085696018 950.8674647439284 219.71086195000436Q937.3444315359626 227.19291533040692 916.6310822613216 227.19291533040692Z"/></svg>
